<svg height="2048" viewBox="0 0 2048 2048" width="2048" xmlns="http://www.w3.org/2000/svg"><g transform="translate(1024 1024)"><path d="m764.224 769.8v-785.0079c0-433.8201-351.188-785.0081-785.0082-785.0081-433.8198 0-785.0078 351.188-785.0078 785.0081 0 433.8199 351.188 785.0079 785.0078 785.0079zm-262.084-244.42h-516.848c-285.627 0-516.848-231.222-516.848-516.84818 0-285.62682 231.221-516.84782 516.848-516.84782s516.848 231.221 516.848 516.84783z"/><path d="m-20.7842-156.838c0 91.0537-74.3161 165.36982-165.3698 165.36982-91.054 0-165.37-74.31612-165.37-165.36982 0-91.054 74.316-165.37 165.37-165.37 91.0537 0 165.3698 74.316 165.3698 165.37zm165.3702-165.37c-91.054 0-165.3702 74.316-165.3702 165.37 0 91.0537 74.3162 165.36982 165.3702 165.36982s165.37-74.31612 165.37-165.36982c0-91.054-74.316-165.37-165.37-165.37zm-330.74 330.73982c-91.054 0-165.37 74.31618-165.37 165.37018s74.316 165.37 165.37 165.37c91.0537 0 165.3698-74.316 165.3698-165.37s-74.3161-165.37018-165.3698-165.37018zm330.74 0c-91.054 0-165.3702 74.31618-165.3702 165.37018s74.3162 165.37 165.3702 165.37 165.37-74.316 165.37-165.37-74.316-165.37018-165.37-165.37018z"/></g></svg>